<svg width="24" height="24" viewBox="0 0 24 24" fill="none" xmlns="http://www.w3.org/2000/svg">
<path d="M6.4218 3C4.52628 3 3 4.52628 3 6.4218V18.3182C3 20.2137 4.52628 21.74 6.4218 21.74H12.8695V14.4138H10.9323V11.7762H12.8695V9.52269C12.8695 7.75223 14.0141 6.12665 16.6509 6.12665C17.7185 6.12665 18.5079 6.22914 18.5079 6.22914L18.4458 8.69228C18.4458 8.69228 17.6407 8.68467 16.7622 8.68467C15.8113 8.68467 15.6588 9.12278 15.6588 9.85007V11.7762H18.5214L18.3966 14.4138H15.6588V21.74H18.3182C20.2137 21.74 21.74 20.2137 21.74 18.3182V6.42182C21.74 4.5263 20.2137 3.00002 18.3182 3.00002H6.42179L6.4218 3Z" fill="black"/>
</svg>
