<svg width="425" height="127" viewBox="0 0 425 127" fill="none" xmlns="http://www.w3.org/2000/svg">
<path d="M105.235 18.8989C110.498 24.0572 114.623 30.2602 117.344 37.1087C119.96 43.8306 121.36 50.9639 121.478 58.1758C121.459 65.3964 120.055 72.5462 117.344 79.2384C114.631 86.1492 110.507 92.4184 105.235 97.6457L79.05 123.83L78.9535 97.5493L92.0458 84.4569C95.565 80.9609 98.373 76.8159 100.315 72.2512C102.121 67.7808 103.023 62.9969 102.97 58.1758C102.893 53.389 101.96 48.6545 100.214 44.1969C98.3712 39.6264 95.6252 35.4747 92.1403 31.9905C88.6553 28.5063 84.503 25.7613 79.932 23.9199C75.4511 22.1497 70.6745 21.247 65.8566 21.2601C61.0404 21.2653 56.2672 22.1673 51.7812 23.9199C47.2585 25.8385 43.1485 28.6118 39.6766 32.0877L26.5843 45.18L0.303162 45.0835L26.4878 18.8989C31.725 13.64 37.9916 9.51909 44.8951 6.79423C51.5701 4.14999 58.6816 2.78036 65.8612 2.75629C73.1049 2.77989 80.2813 4.1491 87.0248 6.79423C93.874 9.51213 100.077 13.6357 105.235 18.8989V18.8989Z" fill="#F3E600"/>
<path d="M0 84.2318L19.8636 64.3683L40.1544 58.3642L7.13876 91.3752L0 84.2318Z" fill="#F3E600"/>
<path d="M32.7584 116.995L65.7694 83.9838L59.7653 104.27L39.9017 124.134L32.7584 116.995Z" fill="#F3E600"/>
<path d="M49.3951 67.5993L16.3826 100.612L23.5224 107.752L56.5349 74.7391L49.3951 67.5993Z" fill="#F3E600"/>
<path d="M221.765 71.8807L214.415 86.342H198.452L241.624 0.00161743L270.441 57.6354H254.248L241.624 32.273L228.904 57.6354L221.765 71.8807ZM284.792 86.342H268.714L261.589 71.9726H277.562L284.792 86.342Z" fill="white"/>
<path d="M343.074 62.1648L357.425 66.9194C355.489 69.8733 353.172 72.5592 350.534 74.908C347.948 77.2915 345.086 79.3566 342.008 81.0591C338.935 82.8134 335.628 84.122 332.187 84.9455C328.671 85.9075 325.04 86.379 321.396 86.3466C309.415 86.3466 299.378 82.0284 290.957 73.6126C282.537 65.1967 278.223 55.1547 278.223 43.1787C278.223 31.3037 282.431 21.1606 290.957 12.7402C299.254 4.20952 309.401 0.00160285 321.382 0.00160285C327.17 -0.0487878 332.906 1.08947 338.237 3.34589C343.377 5.58709 348.051 8.772 352.018 12.7356L341.668 22.8833C336.059 17.2697 329.366 14.4629 321.382 14.4629C313.504 14.4629 306.705 17.164 300.981 22.8833C295.372 28.4923 292.671 35.2865 292.671 43.1741C292.671 51.0616 295.372 57.9569 300.981 63.5705C306.59 69.1842 313.504 71.8807 321.382 71.8807C325.504 71.9025 329.584 71.0573 333.358 69.4001C337.054 67.6724 340.36 65.2107 343.074 62.1648Z" fill="white"/>
<path d="M321.382 36.0491H357.425L343.074 50.4047H321.382V36.0491Z" fill="white"/>
<path d="M424.141 43.1741C424.2 48.8876 423.059 54.5498 420.792 59.7944C418.545 64.9146 415.403 69.5925 411.512 73.608C407.543 77.5558 402.854 80.7058 397.699 82.8874C392.42 85.1907 386.718 86.3673 380.959 86.342H352.248L366.603 71.8807H380.959C384.806 71.8938 388.619 71.1606 392.186 69.7216C395.632 68.2624 398.755 66.1342 401.374 63.4603C403.955 60.7887 406.038 57.6773 407.525 54.2727C409.019 50.7577 409.789 46.9775 409.789 43.158C409.789 39.3386 409.019 35.5583 407.525 32.0433C406.039 28.6117 403.914 25.4938 401.263 22.8557C398.617 20.2159 395.501 18.0926 392.076 16.5944C388.544 15.1659 384.769 14.4328 380.959 14.4353H366.603L352.248 0.00160222H380.959C386.714 -0.00938933 392.409 1.16662 397.689 3.45614C402.796 5.66714 407.444 8.81449 411.393 12.7356C415.353 16.7191 418.537 21.405 420.782 26.5537C423.054 31.7974 424.198 37.4599 424.141 43.1741V43.1741Z" fill="white"/>
<path d="M198.48 112.444C198.48 107.207 202.462 103.353 207.851 103.353C210.456 103.353 212.803 104.221 214.388 105.957L213.189 107.156C212.501 106.459 211.676 105.911 210.766 105.549C209.856 105.186 208.881 105.015 207.901 105.048C203.588 105.048 200.345 108.213 200.345 112.453C200.345 116.693 203.588 119.858 207.901 119.858C208.884 119.891 209.862 119.717 210.773 119.348C211.684 118.978 212.507 118.421 213.189 117.713L214.388 118.912C212.803 120.648 210.456 121.544 207.828 121.544C202.462 121.535 198.48 117.676 198.48 112.444Z" fill="white"/>
<path d="M218.499 112.444C218.499 107.235 222.482 103.353 227.894 103.353C233.305 103.353 237.27 107.207 237.27 112.444C237.27 117.681 233.259 121.535 227.894 121.535C222.528 121.535 218.499 117.653 218.499 112.444ZM235.377 112.444C235.377 108.176 232.184 105.039 227.894 105.039C223.603 105.039 220.364 108.176 220.364 112.444C220.364 116.712 223.58 119.849 227.894 119.849C232.207 119.849 235.377 116.707 235.377 112.444V112.444Z" fill="white"/>
<path d="M262.113 103.504V121.379H260.275V107.078L253.274 119.105H252.383L245.359 107.161V121.402H243.549V103.504H245.107L252.87 116.757L260.555 103.504H262.113Z" fill="white"/>
<path d="M269.821 113.744V103.504H271.714V113.666C271.714 117.906 273.703 119.849 277.176 119.849C280.649 119.849 282.652 117.911 282.652 113.666V103.504H284.489V113.744C284.489 118.875 281.733 121.553 277.162 121.553C272.591 121.553 269.821 118.875 269.821 113.744Z" fill="white"/>
<path d="M307.178 103.504V121.379H305.621L294.136 106.885V121.388H292.244V103.504H293.805L305.322 118.007V103.504H307.178Z" fill="white"/>
<path d="M315.042 103.504H316.931V121.379H315.042V103.504Z" fill="white"/>
<path d="M323.215 112.444C323.215 107.207 327.198 103.353 332.586 103.353C335.191 103.353 337.538 104.221 339.123 105.957L337.92 107.156C337.234 106.457 336.41 105.907 335.501 105.543C334.591 105.178 333.616 105.007 332.637 105.039C328.319 105.039 325.075 108.204 325.075 112.444C325.075 116.684 328.319 119.849 332.637 119.849C333.619 119.882 334.596 119.709 335.507 119.339C336.417 118.969 337.239 118.412 337.92 117.704L339.123 118.903C337.538 120.639 335.191 121.535 332.559 121.535C327.211 121.535 323.215 117.676 323.215 112.444Z" fill="white"/>
<path d="M355.95 116.606H345.991L343.846 121.379H341.879L350.052 103.504H351.889L360.062 121.379H358.073L355.95 116.606ZM355.261 115.072L350.971 105.471L346.68 115.072H355.261Z" fill="white"/>
<path d="M377.959 117.704L379.158 118.903C377.601 120.612 375.276 121.507 372.699 121.535L372.391 122.706C373.797 122.835 374.564 123.653 374.564 124.778C374.564 126.156 373.388 126.997 371.679 126.997C370.921 127.027 370.171 126.822 369.534 126.409L369.966 125.44C370.468 125.765 371.054 125.934 371.652 125.927C372.672 125.927 373.237 125.49 373.237 124.723C373.237 124.034 372.727 123.552 371.652 123.552H371.064L371.601 121.48C366.75 121.048 363.25 117.346 363.25 112.444C363.25 107.207 367.233 103.353 372.621 103.353C375.226 103.353 377.578 104.221 379.158 105.957L377.959 107.156C377.273 106.461 376.451 105.915 375.545 105.552C374.638 105.189 373.666 105.018 372.69 105.048C368.376 105.048 365.133 108.213 365.133 112.453C365.133 116.693 368.376 119.858 372.69 119.858C373.67 119.887 374.645 119.711 375.553 119.34C376.461 118.968 377.28 118.411 377.959 117.704V117.704Z" fill="white"/>
<path d="M395.985 116.606H386.012L383.871 121.379H381.905L390.073 103.504H391.938L400.11 121.379H398.117L395.985 116.606ZM395.296 115.072L391.005 105.471L386.719 115.072H395.296ZM388.098 101.796H387C387.05 100.082 387.941 98.9841 389.297 98.9841C390.881 98.9841 391.644 100.721 392.641 100.721C393.408 100.721 393.918 100.11 393.969 99.1403H395.066C395.016 100.799 394.125 101.897 392.77 101.897C391.185 101.897 390.445 100.16 389.425 100.16C388.658 100.16 388.148 100.771 388.098 101.796V101.796Z" fill="white"/>
<path d="M403.289 112.444C403.289 107.235 407.272 103.353 412.688 103.353C418.104 103.353 422.06 107.207 422.06 112.444C422.06 117.681 418.049 121.535 412.688 121.535C407.327 121.535 403.289 117.653 403.289 112.444ZM420.167 112.444C420.167 108.176 416.951 105.039 412.688 105.039C408.425 105.039 405.154 108.176 405.154 112.444C405.154 116.712 408.37 119.849 412.688 119.849C417.006 119.849 420.167 116.707 420.167 112.444Z" fill="white"/>
</svg>
